<?xml version="1.0" encoding="UTF-8"?>
<svg xmlns="http://www.w3.org/2000/svg" xmlns:xlink="http://www.w3.org/1999/xlink" width="240.75pt" height="141.750002pt" viewBox="0 0 240.75 141.750002" version="1.2">
<g id="surface1">
<path style=" stroke:none;fill-rule:nonzero;fill:rgb(93.728638%,58.81958%,13.328552%);fill-opacity:1;" d="M 122.050781 63.871094 C 122.050781 64.265625 121.730469 64.582031 121.335938 64.582031 L 119.753906 64.582031 C 119.363281 64.582031 119.042969 64.265625 119.042969 63.871094 L 119.042969 62.933594 C 119.042969 62.539062 119.363281 62.21875 119.753906 62.21875 L 121.335938 62.21875 C 121.730469 62.21875 122.050781 62.539062 122.050781 62.933594 L 122.050781 63.871094 "/>
<path style=" stroke:none;fill-rule:nonzero;fill:rgb(93.728638%,58.81958%,13.328552%);fill-opacity:1;" d="M 104.6875 63.871094 C 104.6875 64.265625 104.367188 64.582031 103.972656 64.582031 L 102.390625 64.582031 C 102 64.582031 101.679688 64.265625 101.679688 63.871094 L 101.679688 62.933594 C 101.679688 62.539062 102 62.21875 102.390625 62.21875 L 103.972656 62.21875 C 104.367188 62.21875 104.6875 62.539062 104.6875 62.933594 L 104.6875 63.871094 "/>
<path style=" stroke:none;fill-rule:nonzero;fill:rgb(21.958923%,20.779419%,21.179199%);fill-opacity:1;" d="M 115.8125 55.882812 C 115.8125 56.191406 115.5625 56.4375 115.257812 56.4375 L 108.46875 56.4375 C 108.164062 56.4375 107.917969 56.191406 107.917969 55.882812 L 108.628906 53.308594 C 108.730469 52.988281 108.875 52.753906 109.179688 52.753906 L 114.617188 52.753906 C 114.921875 52.753906 115.050781 52.96875 115.171875 53.308594 L 115.8125 55.882812 "/>
<path style=" stroke:none;fill-rule:nonzero;fill:rgb(21.958923%,20.779419%,21.179199%);fill-opacity:1;" d="M 106.203125 74.003906 C 106.203125 74.75 105.59375 75.359375 104.847656 75.359375 L 104.132812 75.359375 C 103.386719 75.359375 102.777344 74.75 102.777344 74.003906 L 102.777344 70.46875 C 102.777344 69.71875 103.386719 69.113281 104.132812 69.113281 L 104.847656 69.113281 C 105.59375 69.113281 106.203125 69.71875 106.203125 70.46875 L 106.203125 74.003906 "/>
<path style=" stroke:none;fill-rule:nonzero;fill:rgb(21.958923%,20.779419%,21.179199%);fill-opacity:1;" d="M 120.949219 74.003906 C 120.949219 74.75 120.34375 75.359375 119.597656 75.359375 L 118.882812 75.359375 C 118.132812 75.359375 117.527344 74.75 117.527344 74.003906 L 117.527344 70.46875 C 117.527344 69.71875 118.132812 69.113281 118.882812 69.113281 L 119.597656 69.113281 C 120.34375 69.113281 120.949219 69.71875 120.949219 70.46875 L 120.949219 74.003906 "/>
<path style=" stroke:none;fill-rule:nonzero;fill:rgb(80.778503%,50.588989%,11.369324%);fill-opacity:1;" d="M 101.050781 70.386719 L 101.050781 71.257812 C 101.050781 71.796875 101.488281 72.234375 102.027344 72.234375 L 121.699219 72.234375 C 122.242188 72.234375 122.679688 71.796875 122.679688 71.257812 L 122.679688 70.386719 L 101.050781 70.386719 "/>
<path style=" stroke:none;fill-rule:nonzero;fill:rgb(97.648621%,69.40918%,14.898682%);fill-opacity:1;" d="M 119.671875 59.363281 C 119.484375 58.410156 119.351562 56.847656 118.042969 56.222656 C 116.789062 55.625 114.453125 55.25 111.863281 55.160156 C 109.277344 55.25 106.9375 55.625 105.6875 56.222656 C 104.378906 56.847656 104.246094 58.410156 104.058594 59.363281 C 103.785156 60.734375 103.203125 64.898438 103.203125 64.898438 L 120.527344 64.898438 C 120.527344 64.898438 119.945312 60.734375 119.671875 59.363281 "/>
<path style=" stroke:none;fill-rule:nonzero;fill:rgb(27.449036%,63.139343%,67.83905%);fill-opacity:1;" d="M 118.753906 59.882812 C 118.589844 59.042969 118.472656 57.664062 117.316406 57.113281 C 116.210938 56.585938 114.148438 56.253906 111.863281 56.175781 C 109.578125 56.253906 107.515625 56.585938 106.410156 57.113281 C 105.253906 57.664062 105.140625 59.042969 104.972656 59.882812 C 104.734375 61.097656 104.21875 64.769531 104.21875 64.769531 L 119.507812 64.769531 C 119.507812 64.769531 118.996094 61.097656 118.753906 59.882812 "/>
<path style=" stroke:none;fill-rule:nonzero;fill:rgb(93.728638%,58.81958%,13.328552%);fill-opacity:1;" d="M 120.980469 70.453125 C 120.914062 66.097656 116.859375 62.585938 111.863281 62.585938 C 106.867188 62.585938 102.8125 66.097656 102.75 70.453125 L 120.980469 70.453125 "/>
<path style=" stroke:none;fill-rule:nonzero;fill:rgb(97.648621%,69.40918%,14.898682%);fill-opacity:1;" d="M 107.390625 70.453125 L 107.390625 67.898438 C 107.390625 66.011719 105.96875 64.480469 104.21875 64.480469 C 102.46875 64.480469 101.050781 66.011719 101.050781 67.898438 L 101.050781 70.453125 L 107.390625 70.453125 "/>
<path style=" stroke:none;fill-rule:nonzero;fill:rgb(97.648621%,69.40918%,14.898682%);fill-opacity:1;" d="M 122.679688 70.453125 L 122.679688 67.898438 C 122.679688 66.011719 121.261719 64.480469 119.507812 64.480469 C 117.757812 64.480469 116.339844 66.011719 116.339844 67.898438 L 116.339844 70.453125 L 122.679688 70.453125 "/>
<path style=" stroke:none;fill-rule:nonzero;fill:rgb(27.449036%,63.139343%,67.83905%);fill-opacity:1;" d="M 105.945312 67.582031 C 105.945312 68.605469 105.113281 69.4375 104.089844 69.4375 C 103.0625 69.4375 102.230469 68.605469 102.230469 67.582031 C 102.230469 66.554688 103.0625 65.722656 104.089844 65.722656 C 105.113281 65.722656 105.945312 66.554688 105.945312 67.582031 "/>
<path style=" stroke:none;fill-rule:nonzero;fill:rgb(21.958923%,20.779419%,21.179199%);fill-opacity:1;" d="M 104.089844 65.890625 C 103.160156 65.890625 102.402344 66.648438 102.402344 67.582031 C 102.402344 68.507812 103.160156 69.265625 104.089844 69.265625 C 105.019531 69.265625 105.777344 68.507812 105.777344 67.582031 C 105.777344 66.648438 105.019531 65.890625 104.089844 65.890625 Z M 104.089844 69.605469 C 102.972656 69.605469 102.0625 68.695312 102.0625 67.582031 C 102.0625 66.460938 102.972656 65.554688 104.089844 65.554688 C 105.207031 65.554688 106.113281 66.460938 106.113281 67.582031 C 106.113281 68.695312 105.207031 69.605469 104.089844 69.605469 "/>
<path style=" stroke:none;fill-rule:nonzero;fill:rgb(99.609375%,99.609375%,99.609375%);fill-opacity:1;" d="M 102.886719 67.878906 C 102.886719 67.058594 103.550781 66.390625 104.375 66.390625 C 104.71875 66.390625 105.039062 66.511719 105.292969 66.710938 C 105.023438 66.3125 104.570312 66.054688 104.058594 66.054688 C 103.238281 66.054688 102.570312 66.71875 102.570312 67.539062 C 102.570312 68.015625 102.792969 68.4375 103.140625 68.707031 C 102.980469 68.46875 102.886719 68.1875 102.886719 67.878906 "/>
<path style=" stroke:none;fill-rule:nonzero;fill:rgb(27.449036%,63.139343%,67.83905%);fill-opacity:1;" d="M 121.496094 67.582031 C 121.496094 68.605469 120.667969 69.4375 119.640625 69.4375 C 118.617188 69.4375 117.785156 68.605469 117.785156 67.582031 C 117.785156 66.554688 118.617188 65.722656 119.640625 65.722656 C 120.667969 65.722656 121.496094 66.554688 121.496094 67.582031 "/>
<path style=" stroke:none;fill-rule:nonzero;fill:rgb(21.958923%,20.779419%,21.179199%);fill-opacity:1;" d="M 119.640625 65.890625 C 118.710938 65.890625 117.953125 66.648438 117.953125 67.582031 C 117.953125 68.507812 118.710938 69.265625 119.640625 69.265625 C 120.570312 69.265625 121.328125 68.507812 121.328125 67.582031 C 121.328125 66.648438 120.570312 65.890625 119.640625 65.890625 Z M 119.640625 69.605469 C 118.523438 69.605469 117.613281 68.695312 117.613281 67.582031 C 117.613281 66.460938 118.523438 65.554688 119.640625 65.554688 C 120.757812 65.554688 121.664062 66.460938 121.664062 67.582031 C 121.664062 68.695312 120.757812 69.605469 119.640625 69.605469 "/>
<path style=" stroke:none;fill-rule:nonzero;fill:rgb(99.609375%,99.609375%,99.609375%);fill-opacity:1;" d="M 118.4375 67.878906 C 118.4375 67.058594 119.105469 66.390625 119.925781 66.390625 C 120.273438 66.390625 120.589844 66.511719 120.84375 66.710938 C 120.574219 66.3125 120.121094 66.054688 119.609375 66.054688 C 118.789062 66.054688 118.121094 66.71875 118.121094 67.539062 C 118.121094 68.015625 118.34375 68.4375 118.691406 68.707031 C 118.53125 68.46875 118.4375 68.1875 118.4375 67.878906 "/>
<path style=" stroke:none;fill-rule:nonzero;fill:rgb(21.958923%,20.779419%,21.179199%);fill-opacity:1;" d="M 115.710938 66.449219 C 115.710938 66.625 115.570312 66.765625 115.394531 66.765625 L 108.335938 66.765625 C 108.160156 66.765625 108.019531 66.625 108.019531 66.449219 C 108.019531 66.277344 108.160156 66.136719 108.335938 66.136719 L 115.394531 66.136719 C 115.570312 66.136719 115.710938 66.277344 115.710938 66.449219 "/>
<path style=" stroke:none;fill-rule:nonzero;fill:rgb(21.958923%,20.779419%,21.179199%);fill-opacity:1;" d="M 115.710938 67.464844 C 115.710938 67.640625 115.570312 67.78125 115.394531 67.78125 L 108.335938 67.78125 C 108.160156 67.78125 108.019531 67.640625 108.019531 67.464844 C 108.019531 67.292969 108.160156 67.152344 108.335938 67.152344 L 115.394531 67.152344 C 115.570312 67.152344 115.710938 67.292969 115.710938 67.464844 "/>
<path style=" stroke:none;fill-rule:nonzero;fill:rgb(21.958923%,20.779419%,21.179199%);fill-opacity:1;" d="M 115.710938 68.480469 C 115.710938 68.65625 115.570312 68.796875 115.394531 68.796875 L 108.335938 68.796875 C 108.160156 68.796875 108.019531 68.65625 108.019531 68.480469 C 108.019531 68.308594 108.160156 68.167969 108.335938 68.167969 L 115.394531 68.167969 C 115.570312 68.167969 115.710938 68.308594 115.710938 68.480469 "/>
<path style=" stroke:none;fill-rule:nonzero;fill:rgb(99.609375%,99.609375%,99.609375%);fill-opacity:1;" d="M 113.8125 57.898438 L 110.367188 60.796875 L 110.066406 60.4375 L 113.515625 57.542969 L 113.8125 57.898438 "/>
<path style=" stroke:none;fill-rule:nonzero;fill:rgb(99.609375%,99.609375%,99.609375%);fill-opacity:1;" d="M 113.664062 59.203125 L 110.214844 62.097656 L 109.914062 61.742188 L 113.363281 58.84375 L 113.664062 59.203125 "/>
<path style=" stroke:none;fill-rule:nonzero;fill:rgb(97.648621%,69.40918%,14.898682%);fill-opacity:1;" d="M 109.441406 53.402344 L 110.75 53.402344 L 110.75 53.746094 L 110.3125 53.746094 L 110.3125 54.796875 L 109.882812 54.796875 L 109.882812 53.746094 L 109.441406 53.746094 L 109.441406 53.402344 "/>
<path style=" stroke:none;fill-rule:nonzero;fill:rgb(97.648621%,69.40918%,14.898682%);fill-opacity:1;" d="M 111.578125 54.265625 L 111.425781 53.761719 L 111.273438 54.265625 Z M 111.667969 54.566406 L 111.179688 54.566406 L 111.113281 54.796875 L 110.671875 54.796875 L 111.195312 53.402344 L 111.667969 53.402344 L 112.1875 54.796875 L 111.738281 54.796875 L 111.667969 54.566406 "/>
<path style=" stroke:none;fill-rule:nonzero;fill:rgb(97.648621%,69.40918%,14.898682%);fill-opacity:1;" d="M 112.230469 53.402344 L 112.703125 53.402344 L 112.949219 53.832031 L 113.191406 53.402344 L 113.660156 53.402344 L 113.226562 54.078125 L 113.699219 54.796875 L 113.21875 54.796875 L 112.941406 54.347656 L 112.667969 54.796875 L 112.1875 54.796875 L 112.667969 54.070312 L 112.230469 53.402344 "/>
<path style=" stroke:none;fill-rule:nonzero;fill:rgb(97.648621%,69.40918%,14.898682%);fill-opacity:1;" d="M 113.855469 54.796875 L 114.285156 54.796875 L 114.285156 53.402344 L 113.855469 53.402344 Z M 113.855469 54.796875 "/>
<path style=" stroke:none;fill-rule:nonzero;fill:rgb(95.689392%,95.289612%,95.289612%);fill-opacity:1;" d="M 115.054688 72.570312 C 115.054688 72.804688 114.867188 72.992188 114.632812 72.992188 L 109.097656 72.992188 C 108.863281 72.992188 108.675781 72.804688 108.675781 72.570312 L 108.675781 70.050781 C 108.675781 69.816406 108.863281 69.628906 109.097656 69.628906 L 114.632812 69.628906 C 114.867188 69.628906 115.054688 69.816406 115.054688 70.050781 L 115.054688 72.570312 "/>
<path style=" stroke:none;fill-rule:nonzero;fill:rgb(82.749939%,82.348633%,82.348633%);fill-opacity:1;" d="M 114.632812 69.628906 L 109.097656 69.628906 C 108.863281 69.628906 108.675781 69.816406 108.675781 70.050781 L 108.675781 70.277344 L 115.054688 70.277344 L 115.054688 70.050781 C 115.054688 69.816406 114.867188 69.628906 114.632812 69.628906 "/>
<path style=" stroke:none;fill-rule:nonzero;fill:rgb(82.749939%,82.348633%,82.348633%);fill-opacity:1;" d="M 109.097656 72.992188 L 114.632812 72.992188 C 114.867188 72.992188 115.054688 72.804688 115.054688 72.570312 L 115.054688 72.347656 L 108.675781 72.347656 L 108.675781 72.570312 C 108.675781 72.804688 108.863281 72.992188 109.097656 72.992188 "/>
</g>
</svg>
